<?xml version="1.0" encoding="utf-8"?>
<svg version="1.1" xmlns:xlink="http://www.w3.org/1999/xlink" width="21px" height="20px" preserveAspectRatio="xMinYMid meet" viewBox="563 325 21 18" xmlns="http://www.w3.org/2000/svg">
  <defs>
    <mask fill="white" id="Clip8">
      <path d="M 598.549 315  L 633.451 315  L 633.451 354  L 598.549 354  Z M 560 315  L 671 315  L 671 354  L 560 354  Z " fill-rule="evenodd" />
    </mask>
  </defs>
  <path d="M 598.549 334  L 572 334  M 633.451 334  L 659 334  " stroke-width="2" stroke-dasharray="0" stroke="rgba(217, 0, 27, 1)" fill="none" class="stroke" />
  <path d="M 573.5 330.5  A 3.5 3.5 0 0 0 570 334 A 3.5 3.5 0 0 0 573.5 337.5 A 3.5 3.5 0 0 0 577 334 A 3.5 3.5 0 0 0 573.5 330.5 Z M 653.8928932188135 329.70710678118655  L 658.1857864376269 334  L 653.8928932188135 338.29289321881345  L 655.3071067811866 339.70710678118655  L 660.3071067811866 334.70710678118655  L 661.0142135623731 334  L 660.3071067811866 333.29289321881345  L 655.3071067811866 328.29289321881345  L 653.8928932188135 329.70710678118655  Z " fill-rule="nonzero" fill="rgba(217, 0, 27, 1)" stroke="none" class="fill" mask="url(#Clip8)" />
</svg>