<?xml version="1.0" encoding="utf-8"?>
<svg version="1.1" xmlns:xlink="http://www.w3.org/1999/xlink" width="20px" height="20px" preserveAspectRatio="xMinYMid meet" viewBox="649 1027 20 18" xmlns="http://www.w3.org/2000/svg">
  <defs>
    <mask fill="white" id="Clip13">
      <path d="M 491.9504999999999 758  L 528.0495000000001 758  L 528.0495000000001 797  L 491.9504999999999 797  Z M 491.9504999999999 358  L 671 358  L 671 1046  L 491.9504999999999 1046  Z " fill-rule="evenodd" />
    </mask>
  </defs>
  <path d="M 510 370  L 510 1031  A 5 5 0 0 0 515 1036 L 659 1036  " stroke-width="2" stroke-dasharray="0" stroke="rgba(217, 0, 27, 1)" fill="none" class="stroke" mask="url(#Clip13)" />
  <path d="M 510 368  A 3.5 3.5 0 0 0 506.5 371.5 A 3.5 3.5 0 0 0 510 375 A 3.5 3.5 0 0 0 513.5 371.5 A 3.5 3.5 0 0 0 510 368 Z M 653.8928932188135 1031.7071067811864  L 658.185786437627 1036  L 653.8928932188135 1040.2928932188136  L 655.3071067811866 1041.7071067811864  L 660.3071067811866 1036.7071067811864  L 661.014213562373 1036  L 660.3071067811866 1035.2928932188136  L 655.3071067811866 1030.2928932188136  L 653.8928932188135 1031.7071067811864  Z " fill-rule="nonzero" fill="rgba(217, 0, 27, 1)" stroke="none" class="fill" mask="url(#Clip13)" />
</svg>