<?xml version="1.0" encoding="utf-8"?>
<svg version="1.1" xmlns:xlink="http://www.w3.org/1999/xlink" width="21px" height="20px" preserveAspectRatio="xMinYMid meet" viewBox="992 1154 21 18" xmlns="http://www.w3.org/2000/svg">
  <path d="M 1001 1163  L 1055 1163  A 5 5 0 0 0 1060 1158 L 1060 1023  A 5 5 0 0 1 1065 1018 L 1098 1018  " stroke-width="2" stroke-dasharray="0" stroke="rgba(217, 0, 27, 1)" fill="none" class="stroke" />
  <path d="M 1002.5 1159.5  A 3.5 3.5 0 0 0 999 1163 A 3.5 3.5 0 0 0 1002.5 1166.5 A 3.5 3.5 0 0 0 1006 1163 A 3.5 3.5 0 0 0 1002.5 1159.5 Z M 1092.8928932188135 1013.7071067811866  L 1097.185786437627 1018  L 1092.8928932188135 1022.2928932188134  L 1094.3071067811863 1023.7071067811866  L 1099.3071067811863 1018.7071067811866  L 1100.0142135623728 1018  L 1099.3071067811863 1017.2928932188134  L 1094.3071067811863 1012.2928932188134  L 1092.8928932188135 1013.7071067811866  Z " fill-rule="nonzero" fill="rgba(217, 0, 27, 1)" stroke="none" class="fill" />
</svg>