<?xml version="1.0" encoding="utf-8"?>
<svg version="1.1" xmlns:xlink="http://www.w3.org/1999/xlink" width="10px" height="544px" preserveAspectRatio="xMidYMin meet" viewBox="184 667 8 544" xmlns="http://www.w3.org/2000/svg">
  <path d="M 814 1206  L 193 1206  A 5 5 0 0 1 188 1201 L 188 669  " stroke-width="2" stroke-dasharray="0" stroke="rgba(217, 0, 27, 1)" fill="none" class="stroke" />
  <path d="M 812.5 1202.5  A 3.5 3.5 0 0 0 809 1206 A 3.5 3.5 0 0 0 812.5 1209.5 A 3.5 3.5 0 0 0 816 1206 A 3.5 3.5 0 0 0 812.5 1202.5 Z M 183.70710678118655 674.1071067811865  L 188 669.8142135623731  L 192.29289321881345 674.1071067811865  L 193.70710678118655 672.6928932188134  L 188.70710678118655 667.6928932188134  L 188 666.9857864376269  L 187.29289321881345 667.6928932188134  L 182.29289321881345 672.6928932188134  L 183.70710678118655 674.1071067811865  Z " fill-rule="nonzero" fill="rgba(217, 0, 27, 1)" stroke="none" class="fill" />
</svg>