<?xml version="1.0" encoding="utf-8"?>
<svg version="1.1" xmlns:xlink="http://www.w3.org/1999/xlink" width="26px" height="30px" xmlns="http://www.w3.org/2000/svg">
  <defs>
    <pattern id="BGPattern" patternUnits="userSpaceOnUse" alignment="0 0" imageRepeat="None" />
    <mask fill="white" id="Clip30">
      <path d="M 2.2005208333333335 16.70758928571429  C 2.2005208333333335 10.808705357142857  7.035572916666666 6.026785714285714  13 6.026785714285714  C 18.964427083333334 6.026785714285714  23.799479166666668 10.808705357142857  23.799479166666668 16.70758928571429  L 23.799479166666668 24.50892857142857  C 23.799479166666668 25.100662231961564  23.314454312316695 25.580357142857142  22.716145833333332 25  L 3.283854166666667 25  C 2.6855456876833075 25.580357142857142  2.2005208333333335 25.100662231961564  2.2005208333333335 24.50892857142857  L 2.2005208333333335 16.70758928571429  Z M 11.78125 0.40178571428571425  C 11.78125 0.2538522991524661  11.902506213587492 0.13392857142857142  12.052083333333334 0.13392857142857142  L 13.947916666666668 0.13392857142857142  C 14.097493786412507 0.13392857142857142  14.21875 0.2538522991524661  14.21875 0.40178571428571425  L 14.21875 3.616071428571429  C 14.21875 3.7640048437046767  14.097493786412507 3.8839285714285716  13.947916666666668 3.8839285714285716  L 12.052083333333334 3.8839285714285716  C 11.902506213587492 3.8839285714285716  11.78125 3.7640048437046767  11.78125 3.616071428571429  L 11.78125 0.40178571428571425  Z M 1.6673177083333335 4.274330357142857  C 1.7181174446426972 4.224032934902653  1.7870506203065022 4.195771431317204  1.8589322916666664 4.195771431317204  C 1.93081396302683 4.195771431317204  1.9997471386906356 4.224032934902654  2.0505468749999998 4.274330357142857  L 4.3485677083333325 6.547098214285714  C 4.454251032680629 6.651688716772954  4.454251032680629 6.821190747512758  4.3485677083333325 6.925781249999998  L 3.007942708333333 8.251674107142858  C 2.9021900891517896 8.356196076277545  2.7308047025148765 8.356196076277545  2.6250520833333333 8.251674107142858  L 0.3270312499999999 5.97890625  C 0.22134792565270422 5.874315747512759  0.22134792565270422 5.7048137167729545  0.3270312499999999 5.600223214285713  L 1.6676562499999998 4.274330357142857  Z M 23.953177083333333 4.2743303571428575  C 24.058929702514877 4.169808388008171  24.230315089151784 4.169808388008171  24.336067708333335 4.274330357142857  L 25.676692708333334 5.600223214285713  C 25.78215068523926 5.7047752183268186  25.78215068523926 5.874019424530323  25.676692708333334 5.978571428571429  L 23.378671875000002 8.25200892857143  C 23.32787213869064 8.302306350811632  23.258938963026832 8.330567854397083  23.18705729166667 8.330567854397083  C 23.11517562030651 8.330567854397083  23.046242444642694 8.302306350811632  22.995442708333332 8.25200892857143  L 21.654817708333333 6.926116071428572  C 21.60396142584602 6.87587457397975  21.57538590555406 6.807698905740822  21.57538590555406 6.736607142857145  C 21.57538590555406 6.665515379973465  21.603961425846016 6.597339711734536  21.654817708333333 6.5470982142857155  L 23.953177083333333 4.2743303571428575  Z M 1.0833333333333333 28.794642857142858  C 1.0833333333333333 28.202909196609866  1.5683581876833073 27.72321428571429  2.1666666666666665 27.72321428571429  L 23.833333333333332 27.72321428571429  C 24.431641812316695 27.72321428571429  24.916666666666668 28.202909196609866  24.916666666666668 28.794642857142858  L 24.916666666666668 29.59821428571429  C 24.916666666666668 29.746147700847533  24.79541045307917 29.86607142857143  24.645833333333332 29.86607142857143  L 1.3541666666666667 29.86607142857143  C 1.2045895469208268 29.86607142857143  1.0833333333333333 29.746147700847533  1.0833333333333333 29.59821428571429  L 1.0833333333333333 28.794642857142858  Z M 9.34375 17.109375  L 7.177083333333334 17.109375  L 7.177083333333334 25.580357142857142  L 9.34375 25.580357142857142  L 9.34375 17.109375  Z " fill-rule="evenodd" />
    </mask>
  </defs>
  <g transform="matrix(1 0 0 1 -695 -697 )">
    <path d="M 2.2005208333333335 16.70758928571429  C 2.2005208333333335 10.808705357142857  7.035572916666666 6.026785714285714  13 6.026785714285714  C 18.964427083333334 6.026785714285714  23.799479166666668 10.808705357142857  23.799479166666668 16.70758928571429  L 23.799479166666668 24.50892857142857  C 23.799479166666668 25.100662231961564  23.314454312316695 25.580357142857142  22.716145833333332 25  L 3.283854166666667 25  C 2.6855456876833075 25.580357142857142  2.2005208333333335 25.100662231961564  2.2005208333333335 24.50892857142857  L 2.2005208333333335 16.70758928571429  Z M 11.78125 0.40178571428571425  C 11.78125 0.2538522991524661  11.902506213587492 0.13392857142857142  12.052083333333334 0.13392857142857142  L 13.947916666666668 0.13392857142857142  C 14.097493786412507 0.13392857142857142  14.21875 0.2538522991524661  14.21875 0.40178571428571425  L 14.21875 3.616071428571429  C 14.21875 3.7640048437046767  14.097493786412507 3.8839285714285716  13.947916666666668 3.8839285714285716  L 12.052083333333334 3.8839285714285716  C 11.902506213587492 3.8839285714285716  11.78125 3.7640048437046767  11.78125 3.616071428571429  L 11.78125 0.40178571428571425  Z M 1.6673177083333335 4.274330357142857  C 1.7181174446426972 4.224032934902653  1.7870506203065022 4.195771431317204  1.8589322916666664 4.195771431317204  C 1.93081396302683 4.195771431317204  1.9997471386906356 4.224032934902654  2.0505468749999998 4.274330357142857  L 4.3485677083333325 6.547098214285714  C 4.454251032680629 6.651688716772954  4.454251032680629 6.821190747512758  4.3485677083333325 6.925781249999998  L 3.007942708333333 8.251674107142858  C 2.9021900891517896 8.356196076277545  2.7308047025148765 8.356196076277545  2.6250520833333333 8.251674107142858  L 0.3270312499999999 5.97890625  C 0.22134792565270422 5.874315747512759  0.22134792565270422 5.7048137167729545  0.3270312499999999 5.600223214285713  L 1.6676562499999998 4.274330357142857  Z M 23.953177083333333 4.2743303571428575  C 24.058929702514877 4.169808388008171  24.230315089151784 4.169808388008171  24.336067708333335 4.274330357142857  L 25.676692708333334 5.600223214285713  C 25.78215068523926 5.7047752183268186  25.78215068523926 5.874019424530323  25.676692708333334 5.978571428571429  L 23.378671875000002 8.25200892857143  C 23.32787213869064 8.302306350811632  23.258938963026832 8.330567854397083  23.18705729166667 8.330567854397083  C 23.11517562030651 8.330567854397083  23.046242444642694 8.302306350811632  22.995442708333332 8.25200892857143  L 21.654817708333333 6.926116071428572  C 21.60396142584602 6.87587457397975  21.57538590555406 6.807698905740822  21.57538590555406 6.736607142857145  C 21.57538590555406 6.665515379973465  21.603961425846016 6.597339711734536  21.654817708333333 6.5470982142857155  L 23.953177083333333 4.2743303571428575  Z M 1.0833333333333333 28.794642857142858  C 1.0833333333333333 28.202909196609866  1.5683581876833073 27.72321428571429  2.1666666666666665 27.72321428571429  L 23.833333333333332 27.72321428571429  C 24.431641812316695 27.72321428571429  24.916666666666668 28.202909196609866  24.916666666666668 28.794642857142858  L 24.916666666666668 29.59821428571429  C 24.916666666666668 29.746147700847533  24.79541045307917 29.86607142857143  24.645833333333332 29.86607142857143  L 1.3541666666666667 29.86607142857143  C 1.2045895469208268 29.86607142857143  1.0833333333333333 29.746147700847533  1.0833333333333333 29.59821428571429  L 1.0833333333333333 28.794642857142858  Z M 9.34375 17.109375  L 7.177083333333334 17.109375  L 7.177083333333334 25.580357142857142  L 9.34375 25.580357142857142  L 9.34375 17.109375  Z " fill-rule="nonzero" fill="rgba(0, 0, 0, 1)" stroke="none" transform="matrix(1 0 0 1 695 697 )" class="fill" />
    <path d="M 2.2005208333333335 16.70758928571429  C 2.2005208333333335 10.808705357142857  7.035572916666666 6.026785714285714  13 6.026785714285714  C 18.964427083333334 6.026785714285714  23.799479166666668 10.808705357142857  23.799479166666668 16.70758928571429  L 23.799479166666668 24.50892857142857  C 23.799479166666668 25.100662231961564  23.314454312316695 25.580357142857142  22.716145833333332 25  L 3.283854166666667 25  C 2.6855456876833075 25.580357142857142  2.2005208333333335 25.100662231961564  2.2005208333333335 24.50892857142857  L 2.2005208333333335 16.70758928571429  Z " stroke-width="0" stroke-dasharray="0" stroke="rgba(255, 255, 255, 0)" fill="none" transform="matrix(1 0 0 1 695 697 )" class="stroke" mask="url(#Clip30)" />
    <path d="M 11.78125 0.40178571428571425  C 11.78125 0.2538522991524661  11.902506213587492 0.13392857142857142  12.052083333333334 0.13392857142857142  L 13.947916666666668 0.13392857142857142  C 14.097493786412507 0.13392857142857142  14.21875 0.2538522991524661  14.21875 0.40178571428571425  L 14.21875 3.616071428571429  C 14.21875 3.7640048437046767  14.097493786412507 3.8839285714285716  13.947916666666668 3.8839285714285716  L 12.052083333333334 3.8839285714285716  C 11.902506213587492 3.8839285714285716  11.78125 3.7640048437046767  11.78125 3.616071428571429  L 11.78125 0.40178571428571425  Z " stroke-width="0" stroke-dasharray="0" stroke="rgba(255, 255, 255, 0)" fill="none" transform="matrix(1 0 0 1 695 697 )" class="stroke" mask="url(#Clip30)" />
    <path d="M 1.6673177083333335 4.274330357142857  C 1.7181174446426972 4.224032934902653  1.7870506203065022 4.195771431317204  1.8589322916666664 4.195771431317204  C 1.93081396302683 4.195771431317204  1.9997471386906356 4.224032934902654  2.0505468749999998 4.274330357142857  L 4.3485677083333325 6.547098214285714  C 4.454251032680629 6.651688716772954  4.454251032680629 6.821190747512758  4.3485677083333325 6.925781249999998  L 3.007942708333333 8.251674107142858  C 2.9021900891517896 8.356196076277545  2.7308047025148765 8.356196076277545  2.6250520833333333 8.251674107142858  L 0.3270312499999999 5.97890625  C 0.22134792565270422 5.874315747512759  0.22134792565270422 5.7048137167729545  0.3270312499999999 5.600223214285713  L 1.6676562499999998 4.274330357142857  Z " stroke-width="0" stroke-dasharray="0" stroke="rgba(255, 255, 255, 0)" fill="none" transform="matrix(1 0 0 1 695 697 )" class="stroke" mask="url(#Clip30)" />
    <path d="M 23.953177083333333 4.2743303571428575  C 24.058929702514877 4.169808388008171  24.230315089151784 4.169808388008171  24.336067708333335 4.274330357142857  L 25.676692708333334 5.600223214285713  C 25.78215068523926 5.7047752183268186  25.78215068523926 5.874019424530323  25.676692708333334 5.978571428571429  L 23.378671875000002 8.25200892857143  C 23.32787213869064 8.302306350811632  23.258938963026832 8.330567854397083  23.18705729166667 8.330567854397083  C 23.11517562030651 8.330567854397083  23.046242444642694 8.302306350811632  22.995442708333332 8.25200892857143  L 21.654817708333333 6.926116071428572  C 21.60396142584602 6.87587457397975  21.57538590555406 6.807698905740822  21.57538590555406 6.736607142857145  C 21.57538590555406 6.665515379973465  21.603961425846016 6.597339711734536  21.654817708333333 6.5470982142857155  L 23.953177083333333 4.2743303571428575  Z " stroke-width="0" stroke-dasharray="0" stroke="rgba(255, 255, 255, 0)" fill="none" transform="matrix(1 0 0 1 695 697 )" class="stroke" mask="url(#Clip30)" />
    <path d="M 1.0833333333333333 28.794642857142858  C 1.0833333333333333 28.202909196609866  1.5683581876833073 27.72321428571429  2.1666666666666665 27.72321428571429  L 23.833333333333332 27.72321428571429  C 24.431641812316695 27.72321428571429  24.916666666666668 28.202909196609866  24.916666666666668 28.794642857142858  L 24.916666666666668 29.59821428571429  C 24.916666666666668 29.746147700847533  24.79541045307917 29.86607142857143  24.645833333333332 29.86607142857143  L 1.3541666666666667 29.86607142857143  C 1.2045895469208268 29.86607142857143  1.0833333333333333 29.746147700847533  1.0833333333333333 29.59821428571429  L 1.0833333333333333 28.794642857142858  Z " stroke-width="0" stroke-dasharray="0" stroke="rgba(255, 255, 255, 0)" fill="none" transform="matrix(1 0 0 1 695 697 )" class="stroke" mask="url(#Clip30)" />
    <path d="M 9.34375 17.109375  L 7.177083333333334 17.109375  L 7.177083333333334 25.580357142857142  L 9.34375 25.580357142857142  L 9.34375 17.109375  Z " stroke-width="0" stroke-dasharray="0" stroke="rgba(255, 255, 255, 0)" fill="none" transform="matrix(1 0 0 1 695 697 )" class="stroke" mask="url(#Clip30)" />
  </g>
</svg>